<svg xmlns="http://www.w3.org/2000/svg" viewBox="0 0 93.9 106.03"><defs><style>.cls-1{fill:#101012;}</style></defs><g id="Layer_2" data-name="Layer 2"><g id="Clients"><g id="Logos"><g id="_1" data-name="#1"><path class="cls-1" d="M5.11,22.21a4.63,4.63,0,0,1,1.31-.63.74.74,0,0,1,.72.21.78.78,0,0,1,.25.7A1.43,1.43,0,0,1,7,23.3a4.43,4.43,0,0,1-2.88,1.08l.23,1.95a5.77,5.77,0,0,0,3.94-1.72,3.74,3.74,0,0,0,1.15-2.32,2.47,2.47,0,0,0-.8-2.08,2.46,2.46,0,0,0-1.88-.8,4.82,4.82,0,0,0-2.13.8A6.52,6.52,0,0,1,3,21a.75.75,0,0,1-.72-.19A.8.8,0,0,1,2,20.18a1.32,1.32,0,0,1,.4-.76,4,4,0,0,1,2.39-1.16l-.35-1.81A4.88,4.88,0,0,0,2.68,17,5.78,5.78,0,0,0,1.15,18.1,3.87,3.87,0,0,0,0,20.31a2.39,2.39,0,0,0,.8,2.1,2.41,2.41,0,0,0,1.92.81A5.82,5.82,0,0,0,5.11,22.21ZM9,13.86l4.4,6.07,1.68-1.21-4.4-6.08,2.13-1.54-1-1.45L5.78,14l1.06,1.46Zm15.67-.48-.82-1.64-4.27,2.12-.86-1.73,3.73-1.84L21.63,8.7,17.9,10.55l-.85-1.72,4.15-2-.82-1.66-6,3,4.13,8.33Zm3.73-1.26-.75-2.48,1.19-.36a4.82,4.82,0,0,0,2.7-1.65,3,3,0,0,0,.23-2.7,3.16,3.16,0,0,0-1.67-2.16,4.76,4.76,0,0,0-3.23.11l-3.14,1,2.69,8.89Zm-1-7.53a2.57,2.57,0,0,1,1.54-.11,1.29,1.29,0,0,1,.8.95,1.8,1.8,0,0,1,0,1.28,1.87,1.87,0,0,1-1.23.81l-1.34.4-.9-3ZM37.11,10l-.45-3.63,3.67-.44.45,3.63,2-.25L41.71.09,39.65.34l.47,3.86-3.67.44L36,.79,33.92,1l1.13,9.23Zm15-2.27-4.76-.2.08-1.93,4.15.18L51.61,4l-4.16-.17.08-1.92,4.62.2L52.23.28,45.54,0l-.39,9.29L52,9.57Zm5-3.24,3.09,6.64,2,.44,2-9.08-2-.44L60.89,7.9,57.71,1.09,55.81.67l-2,9.08,2,.44Zm10.3,9.23A3.75,3.75,0,0,0,70,14a2.54,2.54,0,0,0,1.64-1.51,2.4,2.4,0,0,0,0-2,4.71,4.71,0,0,0-1.52-1.69,6.62,6.62,0,0,1-1.34-1.17.72.72,0,0,1-.09-.74.78.78,0,0,1,.52-.48,1.23,1.23,0,0,1,.85.08,4.05,4.05,0,0,1,2,1.81l1.55-1a5,5,0,0,0-1.15-1.46,5.5,5.5,0,0,0-1.6-1,3.76,3.76,0,0,0-2.46-.25A2.43,2.43,0,0,0,66.72,6a2.37,2.37,0,0,0,0,2.08A5.88,5.88,0,0,0,68.48,10a4.56,4.56,0,0,1,1.08,1,.77.77,0,0,1,.06.75.79.79,0,0,1-.56.49,1.42,1.42,0,0,1-.92-.12,4.38,4.38,0,0,1-2.06-2.28l-1.72.93A5.67,5.67,0,0,0,67.4,13.73Zm6.24,1.39a4.82,4.82,0,0,0,2.14,3.06,4.77,4.77,0,0,0,3.66.76,4.55,4.55,0,0,0,3.06-2.08,4.59,4.59,0,0,0,.71-3.63,4.79,4.79,0,0,0-2.14-3.06,4.74,4.74,0,0,0-3.65-.76,4.59,4.59,0,0,0-3.07,2.08A4.63,4.63,0,0,0,73.64,15.12Zm2.49-2.46A3,3,0,0,1,78,11.33a2.63,2.63,0,0,1,3.27,2.16,3,3,0,0,1-.5,2.21A3,3,0,0,1,78.9,17a2.6,2.6,0,0,1-2.12-.35,2.56,2.56,0,0,1-1.15-1.81A3,3,0,0,1,76.13,12.66Zm6.55,10.83,4.24-4-1.2,7.22,1.42,1.5,6.76-6.37-1.42-1.51-4.36,4.1L89.35,17,88,15.61,81.26,22ZM14,87.37,9.18,90.31l2.15-5.16L9.66,83.77,5,86.84l2-5.29L5.24,80.12,1.82,89.34l1.19,1,5.67-3.69L6.13,92.91l1.19,1,8.42-5.09ZM22.46,94l.83-1.65-6-3-4.18,8.3,6.11,3.08.83-1.64L15.8,96.91l.87-1.72,3.71,1.88.8-1.58-3.72-1.88.86-1.71Zm8,1a5.3,5.3,0,0,0-1.49-.7L25.46,93.2l-2.73,8.88,3.88,1.2a3.49,3.49,0,0,0,2.82,0,2.53,2.53,0,0,0,1.15-1.44,2.16,2.16,0,0,0-.06-1.55,2.37,2.37,0,0,0-1.09-1.15l.36,0a1.86,1.86,0,0,0,.39-.13,1.88,1.88,0,0,0,1.15-1.34,2.37,2.37,0,0,0-.12-1.73A2.27,2.27,0,0,0,30.41,95Zm-1.8,6a.9.9,0,0,1-.68.7,3.16,3.16,0,0,1-1.35-.19L25.22,101l.63-2,1.17.36a4,4,0,0,1,1.38.64A.82.82,0,0,1,28.61,100.92Zm.58-3.67c-.12.39-.33.61-.63.64a3.19,3.19,0,0,1-1.28-.19l-.94-.29.59-1.92.95.29a3.19,3.19,0,0,1,1.19.57A.86.86,0,0,1,29.19,97.25Zm12.3-.65-3.27-.2-.58,9.28,3.17.19a5.43,5.43,0,0,0,4-1,4.55,4.55,0,0,0,1.51-3.34,4.35,4.35,0,0,0-1.11-3.46A5.49,5.49,0,0,0,41.49,96.6Zm1.87,6.87a3,3,0,0,1-2.22.59L39.82,104l.35-5.64,1.16.08a3.23,3.23,0,0,1,2.29.88,2.81,2.81,0,0,1,.64,2.15A2.71,2.71,0,0,1,43.36,103.47Zm8.22.52-.19-1.92,4.14-.42-.18-1.76-4.14.42L51,98.41l4.6-.47-.19-1.84-6.67.68,1,9.25,6.81-.7-.19-1.82ZM64.67,98.7a4.72,4.72,0,0,0-2.23-.43,7,7,0,0,1-1.78-.12.73.73,0,0,1-.52-.53.85.85,0,0,1,.13-.71,1.19,1.19,0,0,1,.73-.44,4.12,4.12,0,0,1,2.65.25L64.28,95a5,5,0,0,0-1.8-.46,5.6,5.6,0,0,0-1.88.16A3.81,3.81,0,0,0,58.49,96a2.76,2.76,0,0,0,.81,3.91,6.07,6.07,0,0,0,2.55.37,4.55,4.55,0,0,1,1.45.13.8.8,0,0,1,.5.56.83.83,0,0,1-.14.73,1.51,1.51,0,0,1-.81.46,4.35,4.35,0,0,1-3-.57L59,103.35a5.71,5.71,0,0,0,4.26.58,3.73,3.73,0,0,0,2.19-1.38,2.49,2.49,0,0,0,.4-2.2A2.43,2.43,0,0,0,64.67,98.7Zm1.39-5.49,3.4,8.65,1.93-.76L68,92.45Zm11.84-.67,1.25,2.23A3.71,3.71,0,0,1,77.78,96a2.49,2.49,0,0,1-2,.21,3.2,3.2,0,0,1-2-3.7,2.73,2.73,0,0,1,1.34-1.68,3.07,3.07,0,0,1,1.09-.37,4,4,0,0,1,1.38.09l.17-1.89a5.07,5.07,0,0,0-3.67.56,4.71,4.71,0,0,0-2.31,2.88,4.93,4.93,0,0,0,3.35,6,4.74,4.74,0,0,0,3.66-.51,4.86,4.86,0,0,0,2.58-3.22l-1.61-2.87Zm6.34-10.63,4,4.48-7.38-1.45-1.45,1.28,6.16,7,1.56-1.38-3.87-4.36,7.18,1.43L92,87.49l-6.16-7ZM6.83,46.62v2.3a1.79,1.79,0,0,0,.5,1.37,1.74,1.74,0,0,0,1.26.48,1.74,1.74,0,0,0,1.27-.48,1.82,1.82,0,0,0,.49-1.37v-2.3H9.43v2.27a1.23,1.23,0,0,1-.22.78.75.75,0,0,1-.62.28A.73.73,0,0,1,8,49.67a1.17,1.17,0,0,1-.23-.78V46.62Zm7.35,4.11h.92V46.62h-.92v2.64l-2-2.64h-.85v4.11h.91V48.15Zm3.67,0V47.41H19v-.79H15.77v.79h1.16v3.32Zm53.42-4.11v2.3a1.79,1.79,0,0,0,.5,1.37,1.91,1.91,0,0,0,2.53,0,1.82,1.82,0,0,0,.49-1.37v-2.3h-.92v2.27a1.23,1.23,0,0,1-.22.78A.75.75,0,0,1,73,50a.73.73,0,0,1-.61-.28,1.17,1.17,0,0,1-.23-.78V46.62Zm7.35,4.11h.92V46.62h-.92v2.64l-2-2.64h-.86v4.11h.92V48.15Zm3.67,0V47.41h1.17v-.79H80.21v.79h1.16v3.32Zm-38.62.88H40.24V55.2h3.43V73a17.14,17.14,0,0,1-12.46-7.39A10.09,10.09,0,0,0,35,62.29c.87-1.75-3-1.49-6-3.95a8,8,0,0,1-1.89-2.25c-.77-1.31-1.16-.93-1.53-.64a6.83,6.83,0,0,0-1.38,1.82c-1.9,3.28-3.84,9.44-1.72,10.53.94.48,2.55.3,4.3-.23a22.13,22.13,0,0,0,19.1,10.31A22.1,22.1,0,0,0,65,67.57c1.75.54,3.34.71,4.28.23,2.11-1.08.2-7.19-1.69-10.48a7.05,7.05,0,0,0-1.41-1.87c-.37-.29-.76-.67-1.53.64a8,8,0,0,1-1.87,2.23c-3,2.48-6.87,2.22-6,4a10,10,0,0,0,3.83,3.34A17.14,17.14,0,0,1,48.14,73V55.2h3.43V51.61H48.14V48h10l-2.27-4.2h-7.7V39.62a6.88,6.88,0,1,0-4.47,0v4.16H36L33.7,48h10Zm0-18.49a2.28,2.28,0,1,1,2.27,2.27A2.27,2.27,0,0,1,43.63,33.12ZM6.2,54.5H19.37v-2H6.2Zm64.44,0H83.81v-2H70.64Z"/></g></g></g></g></svg>