<svg xmlns="http://www.w3.org/2000/svg" viewBox="0 0 132.23 104.55"><defs><style>.cls-1{fill:#101012;}</style></defs><g id="Layer_2" data-name="Layer 2"><g id="Clients"><g id="Logos"><g id="_2" data-name="#2"><path class="cls-1" d="M54.47,82.38a2.94,2.94,0,0,0,.84-2.22A2.81,2.81,0,0,0,54.45,78,3.48,3.48,0,0,0,52,77.19H49.87v6h2.05A3.53,3.53,0,0,0,54.47,82.38Zm-3.26-4H52a2.12,2.12,0,0,1,1.52.48A1.8,1.8,0,0,1,54,80.2a1.76,1.76,0,0,1-.49,1.35,2,2,0,0,1-1.41.46h-.85ZM60.89,82H57.81V80.77H60.5V79.62H57.81V78.39h3v-1.2H56.47v6h4.42Zm3.36.07a2.8,2.8,0,0,1-1.79-.85l-.8,1a3.7,3.7,0,0,0,2.57,1.05,2.37,2.37,0,0,0,1.59-.5,1.63,1.63,0,0,0,.61-1.31A1.55,1.55,0,0,0,66,80.22a3,3,0,0,0-1.32-.63,4.37,4.37,0,0,1-1.09-.36.48.48,0,0,1-.24-.42.52.52,0,0,1,.19-.42.8.8,0,0,1,.53-.16,2.7,2.7,0,0,1,1.62.59l.67-1a3,3,0,0,0-1-.59,3.67,3.67,0,0,0-1.21-.21,2.47,2.47,0,0,0-1.53.47,1.55,1.55,0,0,0-.61,1.32,1.54,1.54,0,0,0,.48,1.25,3.87,3.87,0,0,0,1.53.65,3.09,3.09,0,0,1,.89.32.5.5,0,0,1,.22.43.52.52,0,0,1-.21.43A.91.91,0,0,1,64.25,82.08Zm4.66-4.89H67.57v6h1.34Zm4.25,6.07a3.15,3.15,0,0,0,2.47-1V80.14H74.28v1.65a2.23,2.23,0,0,1-1.15.26,1.61,1.61,0,0,1-1.2-.51,2.05,2.05,0,0,1,0-2.73,1.75,1.75,0,0,1,1.29-.52,2.15,2.15,0,0,1,.73.13,2.77,2.77,0,0,1,.74.49l.7-1a3.26,3.26,0,0,0-2.25-.86A3,3,0,0,0,71,78a3.16,3.16,0,0,0,0,4.44A3.07,3.07,0,0,0,73.16,83.26Zm5-3.83L81,83.2h1.34v-6H81v3.87l-3-3.87H76.83v6h1.34Zm-44-29.66h2.52v4a1.33,1.33,0,0,1-.29.93.89.89,0,0,1-.68.31,2.18,2.18,0,0,1-1.61-.83l-1,1.37a3.62,3.62,0,0,0,2.68,1.18,2.79,2.79,0,0,0,2-.76,3,3,0,0,0,.78-2.27V48.14H34.16Zm10.43-1.83a4.37,4.37,0,0,0-3.17,1.26,4.45,4.45,0,0,0,0,6.27,4.63,4.63,0,0,0,6.35,0,4.45,4.45,0,0,0,0-6.27A4.37,4.37,0,0,0,44.59,47.94Zm1.81,6.34a2.42,2.42,0,0,1-3.6,0,2.94,2.94,0,0,1,0-3.88,2.43,2.43,0,0,1,3.6,0,2.94,2.94,0,0,1,0,3.88ZM56,51.69H52.57V48.14h-1.9v8.51h1.9V53.3H56v3.35h1.9V48.14H56Zm10,1.93-4.18-5.48H60v8.51h1.89V51.31l4.06,5.34h1.9V48.14H65.9Zm10.21-5.48h-3v8.51H76a5,5,0,0,0,3.63-1.16,4.18,4.18,0,0,0,1.18-3.14,4,4,0,0,0-1.21-3.1A5,5,0,0,0,76.11,48.14Zm2.1,6.17a2.79,2.79,0,0,1-2,.66H75V49.79h1.06a3,3,0,0,1,2.15.68,2.54,2.54,0,0,1,.7,1.93A2.49,2.49,0,0,1,78.21,54.31Zm8.24-6.37a4.37,4.37,0,0,0-3.18,1.26,4.45,4.45,0,0,0,0,6.27,4.64,4.64,0,0,0,6.36,0,4.45,4.45,0,0,0,0-6.27A4.37,4.37,0,0,0,86.45,47.94Zm1.8,6.34a2.41,2.41,0,0,1-3.59,0,2.94,2.94,0,0,1,0-3.88,2.41,2.41,0,0,1,3.59,0,2.94,2.94,0,0,1,0,3.88Zm6.17-1.08h3.81V51.58H94.42V49.83h4.24V48.14H92.52v8.51h6.27V55H94.42Zm30.82,10,7-12.86H119.82V38.09h-8.06V28.94A6.12,6.12,0,0,0,108.92,24L68.5.69a6.17,6.17,0,0,0-5.67,0L22.41,24a6.12,6.12,0,0,0-2.84,4.91h0V30.5H0L7,42.85,0,55.7H11.51V67.17h8.06v8.44a6.1,6.1,0,0,0,2.84,4.91l40.42,23.34a6.17,6.17,0,0,0,5.67,0l40.42-23.34a6.07,6.07,0,0,0,2.83-4.91v-.1h20.48ZM23.47,25.87,63.89,2.53a3.68,3.68,0,0,1,1.77-.4,3.72,3.72,0,0,1,1.78.4l40.42,23.34a4.14,4.14,0,0,1,1.77,3.07v9.15H21.7V28.94h0A4.14,4.14,0,0,1,23.47,25.87Zm-12,27.86H3.35l5.9-10.9L3.39,32.48H19.57v5.61H11.51Zm98.12,21.88a4.14,4.14,0,0,1-1.77,3.07L67.44,102a3.72,3.72,0,0,1-1.78.4,3.65,3.65,0,0,1-1.77-.4L23.47,78.68a4.14,4.14,0,0,1-1.77-3.07V67.17h87.93ZM13.63,65V40.22H117.69V65Zm98.12,2.13h8.07V52.29h9.06L123,63.19l5.86,10.35h-17.1ZM59.82,27.07a7.52,7.52,0,0,0,12.6,0,2.09,2.09,0,0,0,1.42.08c.69-.36.06-2.37-.56-3.46a2.52,2.52,0,0,0-.47-.62c-.12-.09-.25-.22-.5.21a2.71,2.71,0,0,1-.62.74c-1,.82-2.27.73-2,1.31A3.28,3.28,0,0,0,71,26.43a5.64,5.64,0,0,1-4.11,2.44V23H68V21.8H66.86V20.61h3.29l-.75-1.39H66.86V17.85a2.27,2.27,0,1,0-1.48,0v1.37H62.84l-.75,1.39h3.29V21.8H64.25V23h1.13v5.88a5.65,5.65,0,0,1-4.11-2.44,3.32,3.32,0,0,0,1.25-1.1c.29-.58-1-.49-2-1.3a2.46,2.46,0,0,1-.62-.75c-.26-.43-.39-.3-.51-.21a2.56,2.56,0,0,0-.45.6c-.63,1.09-1.27,3.12-.57,3.48A2.09,2.09,0,0,0,59.82,27.07ZM65.37,15.7a.75.75,0,0,1,1.5,0,.75.75,0,1,1-1.5,0Z"/></g></g></g></g></svg>