<svg xmlns="http://www.w3.org/2000/svg" viewBox="0 0 125.83 103.83"><defs><style>.cls-1{fill:#101012;}</style></defs><g id="Layer_2" data-name="Layer 2"><g id="Clients"><g id="Logos"><g id="_4" data-name="#4"><path class="cls-1" d="M41.43,31.84c.08-.58.15-1.08.2-1.48s.11-.78.16-1.13.1-.63.13-.84.06-.4.08-.57,0-.31.06-.39a1.11,1.11,0,0,0,0-.23,1.39,1.39,0,0,1,0-.15s0-.06,0-.08a1.77,1.77,0,0,0-2-2,2.31,2.31,0,0,0-1.56.55A1.86,1.86,0,0,0,37.89,27a3.32,3.32,0,0,0,1.65,2.66L39,34a4.1,4.1,0,0,0,0,.41,2.37,2.37,0,0,0,.6,1.7,2.26,2.26,0,0,0,1.72.64,2.83,2.83,0,0,0,2.56-1.32A2.29,2.29,0,0,0,46,36.76a3,3,0,0,0,2.4-1,8.11,8.11,0,0,0,.74-1,12,12,0,0,0,1.1-3.95A34.74,34.74,0,0,0,50.76,26c0-.67-.28-1-.86-1a2.77,2.77,0,0,0-1.47.37A7.69,7.69,0,0,1,48.6,27a27.77,27.77,0,0,1-.54,5,7.73,7.73,0,0,1-.77,2.31c-.33.62-.72.93-1.15.93s-.77-.3-.77-.9a15.73,15.73,0,0,1,.31-2.62q.18-1,.77-5.53V26c0-.51-.32-.77-1-.77a2.93,2.93,0,0,0-1.21.23l-1,7.76c-.17,1.34-.63,2-1.36,2-.54,0-.8-.34-.8-1a7,7,0,0,1,.09-.89C41.27,32.92,41.34,32.43,41.43,31.84Zm-1.65-4.11-.07.61a2,2,0,0,1-.77-1.43.9.9,0,0,1,.13-.49.49.49,0,0,1,.43-.21c.24,0,.36.16.35.5A8.74,8.74,0,0,1,39.78,27.73Zm13.35-.3a1.18,1.18,0,0,0,.87-.35,1.16,1.16,0,0,0,.36-.86A1.23,1.23,0,0,0,53.13,25a1.16,1.16,0,0,0-.86.36,1.18,1.18,0,0,0-.35.87,1.2,1.2,0,0,0,1.21,1.21Zm2.4.06c-.48,4.06-.75,6.42-.82,7.1,0,0,0,.07-.05.1a1.14,1.14,0,0,1-.92.65c-.34,0-.52-.13-.56-.4a1.31,1.31,0,0,1,0-.36,2.19,2.19,0,0,1,.07-.51s.2-1.59.6-4.67a2.35,2.35,0,0,0-.74-.11,2.6,2.6,0,0,0-.86.15,1,1,0,0,0-.58.42l-.55,4.75c0,.12,0,.24,0,.35a1.81,1.81,0,0,0,.5,1.31,2.09,2.09,0,0,0,1.53.5A2.42,2.42,0,0,0,54.87,36l.1-.12a1.7,1.7,0,0,0,.26.34,2,2,0,0,0,1.49.53,3.3,3.3,0,0,0,1.69-.44,3.47,3.47,0,0,0,1.06-.95,1.76,1.76,0,0,0,.46.86,2,2,0,0,0,1.49.53,3.3,3.3,0,0,0,1.69-.44,3.67,3.67,0,0,0,1-.85,1.62,1.62,0,0,0,.43.79,2.09,2.09,0,0,0,1.53.5A2.38,2.38,0,0,0,67.81,36a3.44,3.44,0,0,0,.35-.41,2.34,2.34,0,0,0,.25.3,2.83,2.83,0,0,0,2.1.85,2.5,2.5,0,0,0,2-1,1.86,1.86,0,0,0,1.87,1,2.36,2.36,0,0,0,1.49-.59,2,2,0,0,0,.21-.2l-.08.72h2.06c0-.49.24-2,.59-4.55a2.68,2.68,0,0,1,.44-1,1,1,0,0,1,.86-.5.82.82,0,0,1,.72.28,1.18,1.18,0,0,1,.21.72l-.58,5.1h2c.09-.63.29-2.24.6-4.84a1.87,1.87,0,0,1,.49-.91,1.11,1.11,0,0,1,.82-.35.85.85,0,0,1,.69.27,1.14,1.14,0,0,1,.21.7l-.37,3.39a2,2,0,0,0,.46,1.23,1.7,1.7,0,0,0,1.42.58q2,0,2.82-2.67a2.7,2.7,0,0,0-.63-.88,4,4,0,0,1-.73,1.64,1.22,1.22,0,0,1-.85.53q-.48,0-.48-.72c0-.27.12-1.17.36-2.71a6.17,6.17,0,0,0,.09-.81,1.7,1.7,0,0,0-.6-1.33A2.39,2.39,0,0,0,85,29.26a2.46,2.46,0,0,0-2.15,1.08c-.33-.71-1.08-1.06-2.27-1.06a2.49,2.49,0,0,0-1.65.64c-.06-.43-.41-.64-1.06-.64a3.9,3.9,0,0,0-1,.17l-.47,4a4.34,4.34,0,0,1-.66,1.35,1.16,1.16,0,0,1-.82.51c-.33,0-.49-.2-.49-.61a13.76,13.76,0,0,1,.14-1.51l.21-1.55c.11-.74.2-1.48.29-2.24a2.23,2.23,0,0,0-1.85.11,3.66,3.66,0,0,0-1.42-.26h-.09a4,4,0,0,0-3,1.2,4.34,4.34,0,0,0-1.19,3.21,3.46,3.46,0,0,0,.12.88l-.06.12a1.14,1.14,0,0,1-.93.65c-.33,0-.51-.13-.56-.4a1.86,1.86,0,0,1,0-.36,2.28,2.28,0,0,1,.08-.51s.2-1.59.6-4.67a2.4,2.4,0,0,0-.74-.11,2.6,2.6,0,0,0-.86.15,1,1,0,0,0-.58.42l-.43,3.65a5.35,5.35,0,0,1-.58,1,1.79,1.79,0,0,1-1.4.87c-.46,0-.69-.27-.69-.8,0-.12.06-.7.18-1.75.06-.48.12-1,.17-1.46q2.43-2.14,2.58-4.2c0-.11,0-.22,0-.32,0-1.25-.67-1.87-2-1.87a2.06,2.06,0,0,0-1,.23c-.63.31-1,1.08-1.15,2.28-.32,2.67-.54,4.58-.68,5.79a5.14,5.14,0,0,1-.67,1.23,1.79,1.79,0,0,1-1.4.87c-.46,0-.69-.27-.69-.8,0-.12.06-.7.18-1.75.06-.48.12-1,.17-1.46q2.43-2.14,2.58-4.2c0-.11,0-.22,0-.32,0-1.25-.67-1.87-2-1.87a2.06,2.06,0,0,0-1,.23C56.05,25.52,55.67,26.29,55.53,27.49Zm14.19,5.95a4.14,4.14,0,0,1,.68-2.22A1.87,1.87,0,0,1,72,30.48a2.29,2.29,0,0,1,.86.18L72.45,34c-.32.91-.81,1.36-1.46,1.36a1.13,1.13,0,0,1-.93-.44,1.87,1.87,0,0,1-.36-1.2A2.46,2.46,0,0,1,69.72,33.44Zm-7.67-4.07c0-.15.07-.55.13-1.2a10.09,10.09,0,0,1,.22-1.4c.08-.28.23-.44.47-.46s.55.25.55.74A4.41,4.41,0,0,1,62,29.83Zm-4.7,0c0-.15.07-.55.13-1.2a10.09,10.09,0,0,1,.22-1.4c.08-.28.23-.44.47-.46s.55.25.55.74a4.41,4.41,0,0,1-1.41,2.78Zm7.87-4a1.19,1.19,0,0,0-.36.87,1.16,1.16,0,0,0,.36.86,1.14,1.14,0,0,0,.86.35,1.18,1.18,0,0,0,.87-.35,1.16,1.16,0,0,0,.36-.86A1.23,1.23,0,0,0,66.08,25,1.15,1.15,0,0,0,65.22,25.35Zm-34.57,61a2.55,2.55,0,0,0-.41-.35l-.73-.54a1.15,1.15,0,0,1-.37-.5,2.12,2.12,0,0,1-.1-.72c0-.67.22-1,.65-1s.66.4.69,1.18l.7-.15a2.05,2.05,0,0,0-.43-1.29,1.29,1.29,0,0,0-1-.35,1.27,1.27,0,0,0-1,.38,1.88,1.88,0,0,0-.37,1.34A2,2,0,0,0,29.14,86l.74.55a1.36,1.36,0,0,1,.5,1.13c0,.65-.25,1-.73,1a.57.57,0,0,1-.53-.34,2.64,2.64,0,0,1-.23-1.11l-.69.12a2.75,2.75,0,0,0,.45,1.51,1.31,1.31,0,0,0,1,.43,1.44,1.44,0,0,0,1-.36,1.66,1.66,0,0,0,.38-1.25,2.25,2.25,0,0,0-.14-.86A1.51,1.51,0,0,0,30.65,86.3Zm3.44,2.86h.74V82.7h-.74Zm6.19-1.74-1.5-4.72H38v6.46h.72V84.45l1.5,4.71H41V82.7h-.72Zm6.53.19-.65-.08a2.16,2.16,0,0,1-.21.92.59.59,0,0,1-1,0,2.12,2.12,0,0,1-.18-1V84.52A2.16,2.16,0,0,1,45,83.46a.51.51,0,0,1,.47-.29.5.5,0,0,1,.45.22,1.93,1.93,0,0,1,.21.82l.67-.17a1.82,1.82,0,0,0-.4-1.15,1.27,1.27,0,0,0-.95-.32,1.23,1.23,0,0,0-1,.45,2.75,2.75,0,0,0-.37,1.66v2.5a2.75,2.75,0,0,0,.37,1.66,1.36,1.36,0,0,0,2,.08A2.37,2.37,0,0,0,46.81,87.61ZM52,83.3v-.6H49.67v6.46H52v-.59H50.4V86.24h1.44v-.59H50.4V83.3Zm13.1-8.56V68.29H64l-.79,4.47-.79-4.47H61.26v6.45H62V68.92l.78,4.44h.82l.78-4.44v5.82Zm-1.89,28-.92-5.39h-.74l1.2,6.45h.92l1.2-6.45h-.74ZM77.31,84.11A1.63,1.63,0,0,0,77,82.9a1.45,1.45,0,0,0-1-.33,1.25,1.25,0,0,0-1,.37,2.16,2.16,0,0,0-.42,1.31l.64.1a2.16,2.16,0,0,1,.23-.95.57.57,0,0,1,.49-.26.61.61,0,0,1,.5.21,1.25,1.25,0,0,1,.17.75,2.32,2.32,0,0,1-.45,1.38l-.76,1.2a7.75,7.75,0,0,0-.68,1.2,2.16,2.16,0,0,0-.15.83v.45h2.75v-.59H75.08l1.66-2.67A3.39,3.39,0,0,0,77.31,84.11Zm4.36-1.54A1.34,1.34,0,0,0,80.6,83a2.67,2.67,0,0,0-.37,1.62v2.6a2.67,2.67,0,0,0,.37,1.62,1.32,1.32,0,0,0,1.07.45,1.31,1.31,0,0,0,1.07-.45,2.6,2.6,0,0,0,.38-1.62v-2.6A2.6,2.6,0,0,0,82.74,83,1.33,1.33,0,0,0,81.67,82.57Zm.72,4.8c0,.88-.24,1.33-.71,1.33a.6.6,0,0,1-.53-.29,2,2,0,0,1-.19-1V84.49a2,2,0,0,1,.19-1,.59.59,0,0,1,.53-.28c.47,0,.71.44.71,1.32Zm5.1-4.8a1.34,1.34,0,0,0-1.07.44,2.6,2.6,0,0,0-.37,1.62v2.6a2.6,2.6,0,0,0,.37,1.62,1.5,1.5,0,0,0,2.14,0,2.6,2.6,0,0,0,.37-1.62v-2.6A2.6,2.6,0,0,0,88.56,83,1.34,1.34,0,0,0,87.49,82.57Zm.71,4.8c0,.88-.23,1.33-.71,1.33a.62.62,0,0,1-.53-.29,2.09,2.09,0,0,1-.19-1V84.49a2.09,2.09,0,0,1,.19-1,.61.61,0,0,1,.53-.28c.48,0,.71.44.71,1.32Zm5.27-2a1.12,1.12,0,0,0-.88.34v-1.2a2,2,0,0,1,.19-1.06.55.55,0,0,1,.5-.29.54.54,0,0,1,.48.23,1.76,1.76,0,0,1,.19.83l.68-.17a1.88,1.88,0,0,0-.41-1.17,1.38,1.38,0,0,0-1-.32,1.25,1.25,0,0,0-1,.45,2.71,2.71,0,0,0-.38,1.66v2.64a2.38,2.38,0,0,0,.38,1.55,1.33,1.33,0,0,0,1.06.43,1.37,1.37,0,0,0,1.07-.43,2.34,2.34,0,0,0,.38-1.53,2.47,2.47,0,0,0-.36-1.54A1.16,1.16,0,0,0,93.47,85.38Zm.58,2.07c0,.85-.25,1.27-.73,1.27s-.73-.42-.73-1.27v-.3c0-.8.25-1.2.73-1.2s.73.42.73,1.27ZM78.78,101.2l-.58-.57,1.52-.34-.1-.45-1.81.4-.57-.57,1.51-.34-.1-.45-1.8.4-.58-.57,1.52-.34-.1-.45-1.81.4L63.56,86.08,78,71.53l.64,1.67,2-4.6h0l-4.58,2,1.62.6L63.23,85.76,48.65,71.28l1.67-.64-4.6-2h0l2,4.59.6-1.62L62.9,86.09,50.63,98.44,48.75,98l-.1.46,1.59.35-.57.57L47.79,99l-.1.46,1.59.34-.57.58L46.83,100l-.1.45,1.59.35-.57.57-1.88-.41-.1.46,1.84.4,0,0,.39,1.75.45-.1-.4-1.81.57-.58L49,102.6l.45-.1-.4-1.81.57-.57.34,1.51.45-.1L50,99.73l.58-.58.34,1.52.45-.1L51,98.76,63.23,86.41,75.56,98.66l-.41,1.88.46.1L76,99.05l.58.57-.41,1.88.45.1.35-1.59.58.57-.42,1.88.46.1.34-1.59.58.57-.41,1.88.45.1.4-1.84,0,0,1.74-.39-.1-.46Zm-34.38-50c-.11-.87-.4-1.27-.88-1.22L43,50l.64,5.24.51-.06c.48-.06.67-.53.56-1.4Zm38.42-1.05-.4,0-.37,2.78.4.06q.7.09.87-1.17l0-.27a1.91,1.91,0,0,0-.06-1A.59.59,0,0,0,82.82,50.12ZM103.69,47a168.61,168.61,0,0,0-41.16-4.89,170.15,170.15,0,0,0-38.78,4.39l5,18a141.8,141.8,0,0,1,33.84-3.94A140,140,0,0,1,98.46,65ZM45.25,55.2a1.35,1.35,0,0,1-1,.57L43,55.93l-.79-6.41,1.25-.15a1.34,1.34,0,0,1,1.12.31,2.55,2.55,0,0,1,.57,1.56l.29,2.31A2.63,2.63,0,0,1,45.25,55.2Zm3.47.09-.53-6.43,2.3-.19,0,.59L49,49.39l.2,2.34,1.43-.12,0,.59-1.43.12.19,2.32,1.6-.13.05.59Zm7.63-.72a1.45,1.45,0,0,1-1,.41,1.26,1.26,0,0,1-1-.38,2.63,2.63,0,0,1-.52-1.48l.68-.16a2.83,2.83,0,0,0,.28,1.11.6.6,0,0,0,.55.3c.48,0,.71-.36.68-1a1.37,1.37,0,0,0-.55-1.11l-.76-.5A2,2,0,0,1,53.74,50a1.92,1.92,0,0,1,.3-1.35,1.28,1.28,0,0,1,1-.43,1.3,1.3,0,0,1,1,.31,2,2,0,0,1,.48,1.26L55.8,50c-.06-.78-.31-1.16-.74-1.14s-.63.36-.6,1a2.2,2.2,0,0,0,.13.71,1.06,1.06,0,0,0,.4.48l.75.51a3.63,3.63,0,0,1,.43.33,1.61,1.61,0,0,1,.32.52,2.18,2.18,0,0,1,.18.85A1.66,1.66,0,0,1,56.35,54.57Zm3.38.13-.1-6.45h.74l.1,6.45Zm6.59,0h-.45l-.12-.6a1,1,0,0,1-1,.73,1.06,1.06,0,0,1-.9-.46,3,3,0,0,1-.29-1.62l0-2.56a2.71,2.71,0,0,1,.4-1.65,1.22,1.22,0,0,1,1-.44,1.32,1.32,0,0,1,1,.34,1.88,1.88,0,0,1,.38,1.16l-.67.16a2,2,0,0,0-.2-.82A.52.52,0,0,0,65,48.7a.55.55,0,0,0-.48.29,2.25,2.25,0,0,0-.19,1.06l0,2.85a2.19,2.19,0,0,0,.15,1,.53.53,0,0,0,.48.29c.47,0,.71-.4.74-1.23l0-1.12-.76,0v-.59l1.45,0Zm6.11.27-.77,0-1.24-4.78-.26,4.7-.72,0,.36-6.44.76,0,1.24,4.8.26-4.72.72,0Zm6-5.37-1.57-.15-.22,2.34,1.43.13-.06.59-1.43-.13-.21,2.32,1.59.15,0,.58-2.33-.21.6-6.43,2.3.22Zm5.6,2.09v0c-.12.93-.42,1.49-.91,1.68l.42,2.71-.75-.1-.39-2.54L82,53.43l-.32,2.45-.73-.1.84-6.39,1.14.15a1.34,1.34,0,0,1,1,.56A2.43,2.43,0,0,1,84.06,51.7ZM27,66.47,22.26,50.94c-3,.78-5.91,1.64-8.73,2.56l6.22,7.28.34,10.27a129,129,0,0,1,16.79-4.43L36,64.35C32.9,65,29.87,65.67,27,66.47Zm73.41.43q-4.34-1.19-9.05-2.11l-.84,2.28a128.6,128.6,0,0,1,16.79,4.4l.32-10.27,6.21-7.29c-2.83-.93-5.74-1.77-8.73-2.55ZM9.51,28a3.59,3.59,0,0,0-1.28-.44,6.33,6.33,0,0,0-1.21,0l-2,.17a2.45,2.45,0,0,1-1.35-.28,4.79,4.79,0,0,1-1.22-1.05c-1-1.11-1.13-2-.41-2.63s1.68-.32,2.88.95l.94-1.29a4.56,4.56,0,0,0-2.6-1.51,2.92,2.92,0,0,0-2.16.85A2.93,2.93,0,0,0,0,24.86a4.28,4.28,0,0,0,1.37,2.76,4.42,4.42,0,0,0,4,1.67l2-.18a3,3,0,0,1,2.5,1.15c1,1.08,1,2,.23,2.7a1.31,1.31,0,0,1-1.37.23,5.94,5.94,0,0,1-2-1.52l-1,1.22a5.85,5.85,0,0,0,3,1.84,2.87,2.87,0,0,0,2.33-.8,3.27,3.27,0,0,0,1.19-2.13A3.7,3.7,0,0,0,11,29.17,5.17,5.17,0,0,0,9.51,28Zm11.23-1.66-7-11,1.67-1.07-.7-1.11-4.72,3,.71,1.11,1.67-1.07,7,11Zm11.77-6.05L32,19.05l-3.25,1.46L26.6,15.78l2.91-1.31L29,13.28l-2.92,1.31L23.92,9.82l3.2-1.43-.54-1.2L21.89,9.3l5.87,13.08Zm7.85-2.67L39,12.68l.87-.25a2.88,2.88,0,0,0,2-1.58,5.65,5.65,0,0,0-.16-3.67l0-.1a5.74,5.74,0,0,0-1.76-3.24,2.9,2.9,0,0,0-2.55-.32l-2.44.68L38.79,18ZM36.87,5l.87-.24c1-.28,1.78.54,2.32,2.48l.17.61c.54,1.93.31,3-.71,3.32l-.87.24ZM52,15.1l-.75-6.45,3.07-.36.76,6.45,1.6-.19L55.06.31,53.46.5,54.21,7l-3.07.36L50.39.86l-1.63.19,1.66,14.24Zm17-1.9-3.57-.13.18-5.17,3.2.11,0-1.31-3.19-.11.18-5.22,3.5.12,0-1.31L64.3,0l-.5,14.33,5.2.18Zm10.12-8,1.31,10.91,1.67.32L84.84,2.38l-1.57-.3-2,10.3L80,1.45l-1.67-.32-2.7,14.08,1.57.3ZM91.53,19.67a3.2,3.2,0,0,0,2.43,0,3.72,3.72,0,0,0,1.76-2.3,5.17,5.17,0,0,0,.36-1.91,3.72,3.72,0,0,0-.21-1.33,6.63,6.63,0,0,0-.6-1l-1.1-1.7a2.45,2.45,0,0,1-.39-1.32,4.64,4.64,0,0,1,.35-1.57c.51-1.4,1.22-1.93,2.13-1.6s1.07,1.33.52,3l1.58.21a4.58,4.58,0,0,0,.11-3,2.92,2.92,0,0,0-1.78-1.5,3,3,0,0,0-2.37,0,4.31,4.31,0,0,0-1.79,2.52,4.45,4.45,0,0,0,.39,4.27L94,14.16a3,3,0,0,1,.17,2.74c-.51,1.36-1.26,1.85-2.27,1.48a1.28,1.28,0,0,1-.85-1.1,5.76,5.76,0,0,1,.38-2.5l-1.53-.28a5.9,5.9,0,0,0-.22,3.5A2.85,2.85,0,0,0,91.53,19.67ZM103,25a2.94,2.94,0,0,0,2.56.31,5.79,5.79,0,0,0,2.5-2.71l2.86-5A5.8,5.8,0,0,0,112,14.06a2.94,2.94,0,0,0-1.58-2,2.92,2.92,0,0,0-2.55-.32,5.77,5.77,0,0,0-2.5,2.72l-2.86,5A5.8,5.8,0,0,0,101.44,23,2.92,2.92,0,0,0,103,25Zm.74-4.51L106.92,15a4.43,4.43,0,0,1,1.51-1.8,1.32,1.32,0,0,1,1.33,0q1.38.78-.09,3.34l-3.16,5.55c-1,1.71-1.92,2.31-2.83,1.78a1.33,1.33,0,0,1-.71-1.13A4.57,4.57,0,0,1,103.75,20.51Zm20.86,1.92-6.73,8.05,4.17-10.19-1.31-1.09-9.19,11,1.22,1,6.72-8-4.15,10.17,1.3,1.09,9.19-11Z"/></g></g></g></g></svg>