<svg xmlns="http://www.w3.org/2000/svg" viewBox="0 0 132.76 82.13"><defs><style>.cls-1{fill:#101012;}</style></defs><g id="Layer_2" data-name="Layer 2"><g id="Clients"><g id="Logos"><g id="_3" data-name="#3"><path class="cls-1" d="M54.31,14.55l.57-4,1-.4.23-.1a3.47,3.47,0,0,0,1,2.08A4,4,0,0,0,60,13.16a4.23,4.23,0,0,0,3.13-1.33,4.88,4.88,0,0,0,1.29-3.54,3.28,3.28,0,0,0-1-2.47,3.63,3.63,0,0,0-2.63-1,4.69,4.69,0,0,0-3.4,1.29,4.32,4.32,0,0,0-1.25,2.56l-1.05.48.86-6a2,2,0,0,1,.34-.94.7.7,0,0,1,.52-.33,1.31,1.31,0,0,1,.53.12c0-.11,0-.22,0-.34A2.41,2.41,0,0,0,56.92.21a3.15,3.15,0,0,1-2,.6,6.18,6.18,0,0,1-1.84-.4A6.51,6.51,0,0,0,51.29,0a2.65,2.65,0,0,0-1.71.54A1.78,1.78,0,0,0,48.91,2a2,2,0,0,0,.66,1.53,2.5,2.5,0,0,0,1.73.58,5.49,5.49,0,0,0,2.05-.39c-.23,1.45-.45,3.16-.67,5.13l-.17,1.39c-2.63,1.39-3.95,3-3.95,4.78a2.91,2.91,0,0,0,.67,1.86,2.2,2.2,0,0,0,1.81.84A3.21,3.21,0,0,0,53.13,17,3.61,3.61,0,0,0,54.31,14.55Zm4.77-7.43a1.58,1.58,0,0,1,1.36-.93,1.29,1.29,0,0,1,1.21.72,3.78,3.78,0,0,1,.4,1.86,3.89,3.89,0,0,1-.56,2.07,1.6,1.6,0,0,1-1.38.91,1.36,1.36,0,0,1-1.23-.65,3.06,3.06,0,0,1-.4-1.65A4.8,4.8,0,0,1,59.08,7.12Zm-7.34-4A1.51,1.51,0,0,1,50.89,3a.53.53,0,0,1-.29-.44A.38.38,0,0,1,51,2.08a5.07,5.07,0,0,1,.84.19c.47.14.93.25,1.38.35A3.29,3.29,0,0,1,51.74,3.14ZM51.91,15a1.22,1.22,0,0,1-.38.82,1.12,1.12,0,0,1-.73.26.82.82,0,0,1-.69-.38,1.3,1.3,0,0,1-.24-.79c0-1.1.81-2.14,2.45-3.12ZM81.4,11.6c-.36,0-.54-.27-.54-.79,0-.29.14-1.3.4-3a6.78,6.78,0,0,0,.1-.91,1.86,1.86,0,0,0-.67-1.47,2.69,2.69,0,0,0-1.84-.59,2.79,2.79,0,0,0-2,.83q0-.84-1.2-.84a4.56,4.56,0,0,0-1.1.19l-.65,5.64a4,4,0,0,1-.26.37,1.39,1.39,0,0,1-1,.59q-.54,0-.54-.81c0-.29.13-1.3.4-3a6.43,6.43,0,0,0,.1-.89A1.86,1.86,0,0,0,72,5.39a2.66,2.66,0,0,0-1.82-.59,3,3,0,0,0-2.06.83c.22-1.36.43-2.94.62-4.74V.79c0-.53-.44-.79-1.34-.79a2.81,2.81,0,0,0-1,.14c-.18,1.6-.67,5.9-1.5,12.92h2.28c0-.38.15-1.2.31-2.45s.28-2.2.36-2.86a2.76,2.76,0,0,1,.54-1.1,1.17,1.17,0,0,1,.91-.42.91.91,0,0,1,.77.31,1.2,1.2,0,0,1,.24.77l-.41,3.79a2.18,2.18,0,0,0,.51,1.37,1.87,1.87,0,0,0,1.58.65,2.76,2.76,0,0,0,1.67-.54l-.06.48h2.32c0-.28.24-2,.65-5.12a2.44,2.44,0,0,1,.49-1.22A1.14,1.14,0,0,1,78,6.23a1,1,0,0,1,.8.31,1.2,1.2,0,0,1,.24.77l-.41,3.82a2.23,2.23,0,0,0,.51,1.38,1.91,1.91,0,0,0,1.58.65q2.25,0,3.16-3a3.13,3.13,0,0,0-.71-1C82.76,10.79,82.17,11.6,81.4,11.6Zm-21.49,48a1.38,1.38,0,0,0-.31-1,1.21,1.21,0,0,0-.87-.3,1.12,1.12,0,0,0-.85.32,2,2,0,0,0-.37,1.15l.56.09a1.87,1.87,0,0,1,.2-.83.5.5,0,0,1,.43-.23.52.52,0,0,1,.43.18,1.07,1.07,0,0,1,.15.65,2,2,0,0,1-.39,1.2l-.66,1a7.19,7.19,0,0,0-.59,1,1.81,1.81,0,0,0-.14.72V64h2.4V63.5H58l1.44-2.32A2.94,2.94,0,0,0,59.91,59.62Zm3.8-1.34a1.12,1.12,0,0,0-.93.39,2.24,2.24,0,0,0-.33,1.41v2.25a2.24,2.24,0,0,0,.33,1.41,1.29,1.29,0,0,0,1.85,0A2.24,2.24,0,0,0,65,62.33V60.08a2.24,2.24,0,0,0-.33-1.41A1.12,1.12,0,0,0,63.71,58.28Zm.62,4.17c0,.77-.21,1.16-.62,1.16a.51.51,0,0,1-.46-.25,1.77,1.77,0,0,1-.17-.91V60a1.77,1.77,0,0,1,.17-.91.53.53,0,0,1,.46-.25c.41,0,.62.39.62,1.16Zm4.43-4.17a1.12,1.12,0,0,0-.93.39,2.24,2.24,0,0,0-.33,1.41v2.25a2.24,2.24,0,0,0,.33,1.41,1.12,1.12,0,0,0,.93.39,1.15,1.15,0,0,0,.93-.39A2.32,2.32,0,0,0,70,62.33V60.08a2.32,2.32,0,0,0-.32-1.41A1.15,1.15,0,0,0,68.76,58.28Zm.62,4.17c0,.77-.21,1.16-.62,1.16a.51.51,0,0,1-.46-.25,1.79,1.79,0,0,1-.16-.91V60a1.79,1.79,0,0,1,.16-.91.53.53,0,0,1,.46-.25c.41,0,.62.39.62,1.16ZM74,60.73a1,1,0,0,0-.76.29V60a1.79,1.79,0,0,1,.16-.92.49.49,0,0,1,.43-.26.48.48,0,0,1,.42.2,1.58,1.58,0,0,1,.17.73l.59-.15a1.61,1.61,0,0,0-.36-1,1.14,1.14,0,0,0-.84-.29,1.1,1.1,0,0,0-.88.4,2.33,2.33,0,0,0-.32,1.44v2.29a2.07,2.07,0,0,0,.32,1.35,1.15,1.15,0,0,0,.92.37,1.17,1.17,0,0,0,.93-.37,2,2,0,0,0,.33-1.33,2.12,2.12,0,0,0-.31-1.34A1,1,0,0,0,74,60.73Zm.5,1.8c0,.73-.21,1.1-.63,1.1s-.63-.37-.63-1.1v-.27c0-.69.21-1,.63-1s.63.37.63,1.11Zm-34-51,1.83-1.83,1.83,1.83.46-.46L42.7,9.21l1.83-1.83-.46-.46L42.24,8.75,40.41,6.92,40,7.38l1.82,1.83L40,11Zm48.2,0,1.83-1.83,1.83,1.83.46-.46L90.9,9.21l1.83-1.83-.46-.46L90.44,8.75,88.61,6.92l-.46.46L90,9.21,88.15,11Zm-82.46,50c0-.85-1.38-1.54-3.08-1.54S0,60.6,0,61.45,1.38,63,3.07,63,6.15,62.3,6.15,61.45ZM4.78,56.2c-.6.6-.11,2.06,1.09,3.26s2.66,1.69,3.26,1.09S9.25,58.49,8,57.29,5.38,55.6,4.78,56.2Zm1.09,7.23c-1.2,1.2-1.69,2.66-1.09,3.26s2.06.12,3.26-1.08S9.73,63,9.13,62.35,7.07,62.23,5.87,63.43Zm6.38-1.49H46.5V61H12.25Zm117.44-2c-1.7,0-3.08.69-3.08,1.54S128,63,129.69,63s3.07-.69,3.07-1.53S131.39,59.91,129.69,59.91Zm-6.06,2.44c-.6.6-.11,2.06,1.09,3.26s2.66,1.68,3.26,1.08.11-2.06-1.09-3.26S124.23,61.75,123.63,62.35Zm3.26-2.89c1.2-1.2,1.69-2.66,1.09-3.26s-2.06-.12-3.26,1.09-1.69,2.65-1.09,3.26S125.69,60.66,126.89,59.46Zm-40.8,2.48h34.43V61H86.09ZM14.39,47.33a3.62,3.62,0,0,0,2.41-1.27,4.1,4.1,0,0,0,.47-3.19,5.81,5.81,0,0,0-.67-2.06,4.19,4.19,0,0,0-.94-1.19,6.79,6.79,0,0,0-1.15-.71l-2-1.06a2.79,2.79,0,0,1-1.1-1.08,5.41,5.41,0,0,1-.51-1.72c-.25-1.65.16-2.55,1.22-2.71s1.77.71,2.13,2.63l1.66-.64a5.11,5.11,0,0,0-1.53-3,3.27,3.27,0,0,0-2.54-.5,3.29,3.29,0,0,0-2.3,1.31,4.82,4.82,0,0,0-.38,3.43,5,5,0,0,0,2.68,4l2,1.06a3.37,3.37,0,0,1,1.64,2.59c.25,1.6-.22,2.49-1.42,2.67a1.45,1.45,0,0,1-1.42-.61,6.56,6.56,0,0,1-1-2.66l-1.65.56a6.54,6.54,0,0,0,1.67,3.54A3.17,3.17,0,0,0,14.39,47.33Zm7.49-16,1.66,14.45,1.8-.2L23.68,31.09l2.2-.25-.16-1.45-6.21.71.17,1.45ZM37.34,44.42,37.21,43l-4,.33-.49-5.76,3.56-.3-.13-1.46-3.55.3-.49-5.81,3.9-.33-.13-1.46L30.2,29l1.35,16ZM47.81,33v-.11c-.11-1.94-.49-3.26-1.15-4A3.22,3.22,0,0,0,44,28l-2.83.15.88,16,1.83-.1-.31-5.66,1-.06A3.28,3.28,0,0,0,47.11,37C47.69,36.27,47.92,34.92,47.81,33Zm-3.36,3.85-1,.06L43,29.47l1,0c1.17-.07,1.82,1,2,3.26l0,.71C46.15,35.62,45.62,36.78,44.45,36.84Zm13.42,6.6,1.81,0-.43-16-1.81.05.2,7.3-3.45.09-.2-7.3-1.83.05.43,16,1.83,0-.19-7.25,3.45-.09Zm8.81-1.57,0-5.79h3.57V34.61H66.66l0-5.83,3.91,0V27.31l-5.74,0,.06,16,5.81,0V41.86Zm14.41-2.63L77.68,27.43l-1.9-.05-.43,16,1.79,0,.31-11.68,3.41,11.78,1.9,0,.43-16-1.78,0Zm10,5.09a3.6,3.6,0,0,0,2.62-.75,4.11,4.11,0,0,0,1.13-3,6,6,0,0,0-.24-2.15A4.18,4.18,0,0,0,93.93,37a8.2,8.2,0,0,0-1-.92l-1.73-1.45a2.68,2.68,0,0,1-.85-1.29,5.09,5.09,0,0,1-.14-1.79c.09-1.66.67-2.46,1.75-2.4s1.58,1.07,1.53,3l1.76-.29a5.1,5.1,0,0,0-.87-3.25,3.77,3.77,0,0,0-4.9-.21,4.81,4.81,0,0,0-1.09,3.28,4.94,4.94,0,0,0,1.81,4.43L92,37.62A3.39,3.39,0,0,1,93,40.5c-.09,1.61-.74,2.39-1.94,2.32a1.45,1.45,0,0,1-1.27-.9,6.63,6.63,0,0,1-.4-2.79l-1.73.2a6.6,6.6,0,0,0,.91,3.8A3.16,3.16,0,0,0,91.08,44.33Zm11.43.83a3.28,3.28,0,0,0,2.74-.87c.68-.68,1.1-2,1.27-3.92L107.1,34q.25-2.89-.57-4.08a3.73,3.73,0,0,0-5.29-.47c-.68.68-1.11,2-1.28,3.91l-.57,6.43q-.26,2.9.57,4.08A3.27,3.27,0,0,0,102.51,45.16Zm-1.35-4.92.63-7.11a5,5,0,0,1,.7-2.53,1.47,1.47,0,0,1,1.37-.59c1.17.1,1.66,1.25,1.47,3.43l-.64,7.11c-.19,2.19-.87,3.23-2,3.13a1.5,1.5,0,0,1-1.25-.83A5,5,0,0,1,101.16,40.24Zm13-6,2.21,12.07,1.89.24,2-15.88-1.77-.23L117.05,42.1,114.85,30,113,29.76l-2,15.89,1.77.22ZM33.45,75.76a2.46,2.46,0,0,1,.28-1.12.56.56,0,0,1,.53-.27.51.51,0,0,1,.46.27,1.89,1.89,0,0,1,.15.89l.74-.12a2,2,0,0,0-.34-1.26,1.34,1.34,0,0,0-1-.42,1.29,1.29,0,0,0-1.1.39,3,3,0,0,0-.53,1.74l-.21,2.73a3.21,3.21,0,0,0,.21,1.75,1.12,1.12,0,0,0,.92.55,1.07,1.07,0,0,0,1.12-.72l.09.66.48,0,.28-3.63L34,77.11l0,.62.81.07L34.68,79q-.13,1.32-.87,1.26a.57.57,0,0,1-.5-.34,2.5,2.5,0,0,1-.09-1.13Zm5.65-1.54-1.22-.08L37.43,81l.79.06.17-2.64.48,0,.59,2.69.81,0-.63-2.87c.5-.23.79-.85.85-1.85v0a2.54,2.54,0,0,0-.29-1.69A1.44,1.44,0,0,0,39.1,74.22Zm.61,2.32c-.06.9-.34,1.34-.85,1.31l-.43,0,.19-3,.44,0a.61.61,0,0,1,.53.33,2,2,0,0,1,.14,1.07Zm3.66-2.07L41.74,81.3l.79,0,.39-1.78,1.39.08.21,1.81.79,0-.9-7Zm-.31,4.47.78-3.44.4,3.5Zm5.53-4.21-1.22-.06-.3,6.9.79,0L48,79.16l.43,0a1.4,1.4,0,0,0,1.16-.43,2.76,2.76,0,0,0,.47-1.7v0a2.7,2.7,0,0,0-.33-1.75A1.38,1.38,0,0,0,48.59,74.73Zm.65,2.41c0,1-.31,1.44-.82,1.42l-.43,0,.14-3.2.43,0c.51,0,.74.51.7,1.48Zm4.79.93-1.49,0,.1-3.14-.79,0-.21,6.9.78,0,.1-3.13,1.49,0-.1,3.12.78,0,.22-6.9-.78,0Zm2.89,3.83.78,0,.16-6.9-.79,0Zm3.92-6a.58.58,0,0,1,.52-.31.55.55,0,0,1,.47.25,1.89,1.89,0,0,1,.21.88l.73-.17a2,2,0,0,0-.42-1.24,1.39,1.39,0,0,0-1-.36,1.27,1.27,0,0,0-1.06.47,2.89,2.89,0,0,0-.42,1.77l0,2.68a2.93,2.93,0,0,0,.37,1.78,1.47,1.47,0,0,0,2.1.11,2.41,2.41,0,0,0,.46-1.4l-.68-.09a2.29,2.29,0,0,1-.25,1,.58.58,0,0,1-.52.26.61.61,0,0,1-.53-.31,2.27,2.27,0,0,1-.17-1.11l0-3.06A2.51,2.51,0,0,1,60.84,75.88Zm8.64-.29a1.44,1.44,0,0,0-1.15-.47H67L67,82h1.34a1.4,1.4,0,0,0,1.15-.48,2.7,2.7,0,0,0,.4-1.73V77.32A2.75,2.75,0,0,0,69.48,75.59ZM68.35,81.4H67.8l0-5.65h.55c.52,0,.78.47.79,1.41V80C69.13,80.93,68.87,81.4,68.35,81.4Zm4.43,0,0-2.49,1.54,0v-.63l-1.53,0,0-2.52,1.68,0v-.63l-2.47,0L72,82l2.51,0v-.63Zm6.09-2.53a2.21,2.21,0,0,0-.45-.36l-.79-.57a1.17,1.17,0,0,1-.41-.52,2.59,2.59,0,0,1-.12-.77c0-.71.21-1.08.67-1.09s.72.41.76,1.25l.75-.19a2.19,2.19,0,0,0-.49-1.36,1.37,1.37,0,0,0-1.05-.36,1.43,1.43,0,0,0-1.06.43,2.56,2.56,0,0,0,.57,3.29l.8.56a1.48,1.48,0,0,1,.56,1.21c0,.69-.24,1.05-.76,1.06a.64.64,0,0,1-.57-.34A2.89,2.89,0,0,1,77,79.88l-.73.14a2.81,2.81,0,0,0,.51,1.61,1.4,1.4,0,0,0,1.11.43,1.58,1.58,0,0,0,1.1-.41,1.78,1.78,0,0,0,.38-1.34,2.74,2.74,0,0,0-.17-.92A1.75,1.75,0,0,0,78.87,78.83Zm2.35-3.91.21,6.9.79,0L82,74.9ZM85.6,78l0,.63.8,0,0,1.2c0,.89-.22,1.34-.72,1.36a.55.55,0,0,1-.52-.28A2.36,2.36,0,0,1,85,79.78l-.12-3A2.44,2.44,0,0,1,85,75.59a.58.58,0,0,1,.5-.33.54.54,0,0,1,.49.23,2,2,0,0,1,.25.86l.72-.21a2,2,0,0,0-.48-1.21,1.43,1.43,0,0,0-1-.31,1.32,1.32,0,0,0-1,.53,2.88,2.88,0,0,0-.32,1.79l.11,2.73a3.13,3.13,0,0,0,.4,1.71,1.11,1.11,0,0,0,1,.44,1.08,1.08,0,0,0,1-.84l.16.64.48,0L87.15,78Zm5.92-3.52.26,5-1.87-5-.81.05.35,6.89.77,0-.26-5,1.87,5,.81,0-.35-6.89Zm4.08,6L95.44,78,97,78l0-.63-1.54.09-.16-2.5,1.69-.11,0-.63-2.47.16.44,6.88,2.5-.16,0-.63ZM101.77,76v0a2.62,2.62,0,0,0-.53-1.63,1.43,1.43,0,0,0-1.16-.37L98.86,74l.52,6.88.78-.06-.2-2.63.49,0,1,2.58.81-.06-1-2.75C101.65,77.64,101.85,77,101.77,76Zm-1.42,1.58-.43,0-.23-3,.43,0a.62.62,0,0,1,.58.25,2,2,0,0,1,.28,1l0,.29C101.07,77.06,100.85,77.53,100.35,77.57Z"/></g></g></g></g></svg>